<svg width="1099" height="595" viewBox="0 0 1099 595" fill="none" xmlns="http://www.w3.org/2000/svg">
<path d="M387.171 472.528C381.454 472.528 377.4 470.907 375.011 467.664C372.707 464.336 371.555 459.344 371.555 452.688C371.555 448.421 372.238 442.021 373.603 433.488C375.054 424.869 377.059 413.477 379.619 399.312L372.835 385.616C376.846 383.056 381.112 380.88 385.635 379.088C390.158 377.211 394.68 376.272 399.203 376.272C402.19 376.272 404.408 376.997 405.859 378.448C407.31 379.899 408.248 381.733 408.675 383.952C412.6 381.733 416.696 379.941 420.963 378.576C425.315 377.125 429.838 376.4 434.531 376.4C437.859 376.4 441.187 376.955 444.515 378.064C447.928 379.173 450.787 381.136 453.091 383.952C455.395 386.683 456.547 390.608 456.547 395.728C456.547 401.616 454.84 406.821 451.427 411.344C448.014 415.781 443.022 419.365 436.451 422.096C440.12 422.693 443.491 423.845 446.563 425.552C449.72 427.259 452.238 429.691 454.115 432.848C455.992 436.005 456.931 440.059 456.931 445.008C456.931 449.445 455.907 453.371 453.859 456.784C451.896 460.197 449.251 463.099 445.923 465.488C442.68 467.792 439.054 469.499 435.043 470.608C431.118 471.803 427.192 472.4 423.267 472.4C418.488 472.4 414.392 471.888 410.979 470.864C407.651 469.84 404.878 468.56 402.659 467.024C397.624 470.693 392.462 472.528 387.171 472.528ZM403.555 420.816C407.736 420.475 411.747 419.664 415.587 418.384C419.512 417.104 422.712 415.227 425.187 412.752C427.747 410.192 429.027 406.907 429.027 402.896C429.027 396.496 425.699 393.296 419.043 393.296C417.166 393.296 415.331 393.467 413.539 393.808C411.747 394.149 409.998 394.619 408.291 395.216C407.779 398.459 407.096 402.384 406.243 406.992C405.39 411.515 404.494 416.123 403.555 420.816ZM412.899 454.48C416.739 454.48 420.11 453.456 423.011 451.408C425.912 449.36 427.363 446.203 427.363 441.936C427.363 437.84 426.126 434.939 423.651 433.232C421.176 431.44 418.19 430.544 414.691 430.544C412.558 430.544 410.296 430.8 407.907 431.312C405.603 431.739 403.384 432.293 401.251 432.976C400.654 436.389 400.142 439.419 399.715 442.064C399.374 444.709 399.203 446.757 399.203 448.208V451.536C401.166 452.389 403.342 453.115 405.731 453.712C408.12 454.224 410.51 454.48 412.899 454.48Z" fill="#C2680E"/>
<path d="M502.734 472.4C495.225 472.4 488.739 470.992 483.278 468.176C477.902 465.275 473.763 461.307 470.862 456.272C467.961 451.237 466.51 445.392 466.51 438.736C466.51 429.52 468.515 421.456 472.526 414.544C476.622 407.547 482.211 402.128 489.294 398.288C496.377 394.363 504.441 392.4 513.486 392.4C514.937 392.4 516.387 392.485 517.838 392.656C519.374 392.741 520.995 392.997 522.702 393.424C523.129 394.619 523.47 396.069 523.726 397.776C523.982 399.397 524.153 401.147 524.238 403.024C525.006 402.768 525.817 402.555 526.67 402.384C527.609 402.213 528.59 402.128 529.614 402.128C532.601 402.128 535.417 402.939 538.062 404.56C540.707 406.096 542.883 408.528 544.59 411.856C546.297 415.184 547.15 419.408 547.15 424.528C547.15 432.123 545.87 438.907 543.31 444.88C540.835 450.768 537.465 455.76 533.198 459.856C528.931 463.952 524.153 467.067 518.862 469.2C513.657 471.333 508.281 472.4 502.734 472.4ZM506.702 456.656C508.665 456.656 510.713 456.187 512.846 455.248C514.979 454.309 517.07 452.603 519.118 450.128C521.166 447.653 522.873 444.155 524.238 439.632C520.569 437.328 517.923 434.512 516.302 431.184C514.681 427.771 513.87 424.016 513.87 419.92C513.87 418.725 514.083 417.189 514.51 415.312C514.937 413.435 515.662 411.515 516.686 409.552C517.795 407.589 519.289 405.968 521.166 404.688C515.278 405.883 510.457 407.675 506.702 410.064C502.947 412.453 500.003 415.227 497.87 418.384C495.822 421.456 494.371 424.656 493.518 427.984C492.75 431.227 492.366 434.341 492.366 437.328C492.366 440.741 492.921 443.941 494.03 446.928C495.139 449.829 496.761 452.176 498.894 453.968C501.027 455.76 503.63 456.656 506.702 456.656Z" fill="#C2680E"/>
<path d="M589.498 472.4C579.941 472.4 572.73 470.224 567.866 465.872C563.087 461.435 560.698 454.437 560.698 444.88C560.698 442.149 561.082 438.011 561.85 432.464C562.618 426.917 563.599 420.432 564.794 413.008C566.074 405.584 567.482 397.776 569.018 389.584L561.85 379.344C566.287 376.699 570.426 374.48 574.266 372.688C578.191 370.896 582.117 370 586.042 370C589.711 370 592.399 370.725 594.106 372.176C595.813 373.541 596.666 375.845 596.666 379.088C596.666 381.307 596.41 384.208 595.898 387.792C595.386 391.291 594.746 395.088 593.978 399.184C593.295 403.28 592.527 407.291 591.674 411.216L592.954 411.856C596.026 405.797 599.738 401.232 604.09 398.16C608.527 395.088 613.775 393.552 619.834 393.552C624.442 393.552 628.325 394.917 631.482 397.648C634.639 400.293 637.029 403.877 638.65 408.4C640.271 412.837 641.082 417.744 641.082 423.12C641.082 431.227 639.503 438.352 636.346 444.496C633.189 450.64 629.007 455.803 623.802 459.984C618.682 464.08 613.093 467.152 607.034 469.2C601.061 471.333 595.215 472.4 589.498 472.4ZM586.042 457.552C591.077 457.552 595.557 456.656 599.482 454.864C603.407 452.987 606.735 450.512 609.466 447.44C612.282 444.368 614.415 440.997 615.866 437.328C617.317 433.573 618.042 429.819 618.042 426.064C618.042 423.76 617.615 421.499 616.762 419.28C615.909 417.061 614.671 415.227 613.05 413.776C611.514 412.325 609.722 411.6 607.674 411.6C604.517 411.6 601.743 412.496 599.354 414.288C597.05 416.08 595.087 418.469 593.466 421.456C591.93 424.357 590.65 427.6 589.626 431.184C588.687 434.683 587.919 438.181 587.322 441.68C586.81 445.093 586.469 448.208 586.298 451.024C586.127 453.84 586.042 456.016 586.042 457.552Z" fill="#C2680E"/>
<path d="M675.931 472.4C671.152 472.4 666.928 471.163 663.259 468.688C659.675 466.213 656.902 462.715 654.939 458.192C652.976 453.669 651.995 448.379 651.995 442.32C651.995 435.237 653.232 428.667 655.707 422.608C658.267 416.549 661.766 411.259 666.203 406.736C670.726 402.213 676.016 398.715 682.075 396.24C688.134 393.68 694.704 392.4 701.787 392.4C703.835 392.4 705.584 392.485 707.035 392.656C708.571 392.741 710.192 392.997 711.899 393.424C712.411 395.813 712.71 397.904 712.795 399.696C714.758 398.416 716.934 397.435 719.323 396.752C721.712 395.984 723.931 395.6 725.979 395.6C732.208 395.6 735.323 398.971 735.323 405.712C735.323 407.931 734.896 410.96 734.043 414.8C733.275 418.555 732.336 422.736 731.227 427.344C730.203 431.867 729.264 436.517 728.411 441.296C727.643 445.989 727.259 450.384 727.259 454.48C727.259 460.027 728.582 463.909 731.227 466.128C726.448 470.309 721.371 472.4 715.995 472.4C711.046 472.4 707.376 470.864 704.987 467.792C702.683 464.72 701.531 459.941 701.531 453.456L700.251 452.816C697.947 458.96 694.619 463.781 690.267 467.28C686 470.693 681.222 472.4 675.931 472.4ZM686.043 449.104C689.371 449.104 692.614 447.909 695.771 445.52C698.928 443.131 701.574 439.845 703.707 435.664C704.048 432.336 704.39 429.221 704.731 426.32C705.158 423.333 705.67 420.176 706.267 416.848C706.95 413.52 707.76 409.595 708.699 405.072C704.347 405.072 700.208 405.925 696.283 407.632C692.443 409.253 688.987 411.515 685.915 414.416C682.843 417.317 680.411 420.645 678.619 424.4C676.912 428.069 676.059 431.952 676.059 436.048C676.059 440.229 676.912 443.472 678.619 445.776C680.411 447.995 682.886 449.104 686.043 449.104Z" fill="#C2680E"/>
<path d="M253.176 567.4C243.96 567.4 236.024 565.608 229.368 562.024C222.797 558.44 217.72 553.448 214.136 547.048C210.637 540.648 208.888 533.309 208.888 525.032C208.888 514.28 210.893 504.893 214.904 496.872C219 488.851 224.802 482.621 232.312 478.184C239.906 473.661 248.994 471.4 259.576 471.4C264.696 471.4 268.322 472.467 270.456 474.6C272.589 476.648 273.656 479.677 273.656 483.688C273.656 484.285 273.613 484.84 273.528 485.352C273.528 485.864 273.485 486.461 273.4 487.144C276.642 484.584 280.141 483.304 283.896 483.304C287.053 483.304 290.082 484.285 292.984 486.248C295.885 488.125 298.232 491.069 300.024 495.08C301.901 499.091 302.84 504.168 302.84 510.312C302.84 519.443 301.432 527.549 298.616 534.632C295.885 541.715 292.13 547.688 287.352 552.552C282.658 557.416 277.368 561.128 271.48 563.688C265.592 566.163 259.49 567.4 253.176 567.4ZM254.2 548.712C258.381 548.712 262.178 547.091 265.592 543.848C269.09 540.52 271.48 536.253 272.76 531.048C269.773 527.379 267.64 523.709 266.36 520.04C265.165 516.285 264.568 512.573 264.568 508.904C264.568 505.064 265.037 501.651 265.976 498.664C266.914 495.677 268.152 493.117 269.688 490.984C268.152 490.728 266.616 490.6 265.08 490.6C260.301 490.6 256.12 491.624 252.536 493.672C249.037 495.72 246.093 498.451 243.704 501.864C241.4 505.192 239.65 508.861 238.456 512.872C237.346 516.797 236.792 520.68 236.792 524.52C236.792 528.872 237.432 532.883 238.712 536.552C240.077 540.221 242.04 543.165 244.6 545.384C247.245 547.603 250.445 548.712 254.2 548.712Z" fill="#C2680E"/>
<path d="M328.237 567.4C323.031 567.4 319.319 565.779 317.101 562.536C314.882 559.293 313.773 554.344 313.773 547.688C313.773 545.811 313.986 543.037 314.413 539.368C314.925 535.699 315.565 531.517 316.333 526.824C317.101 522.131 317.954 517.267 318.893 512.232C319.831 507.112 320.727 502.163 321.581 497.384C322.434 492.605 323.202 488.339 323.885 484.584L316.717 474.344C321.239 471.699 325.549 469.48 329.645 467.688C333.741 465.896 337.837 465 341.933 465C345.517 465 347.991 465.725 349.357 467.176C350.807 468.541 351.533 470.845 351.533 474.088C351.533 477.075 351.149 480.829 350.381 485.352C349.613 489.789 348.674 494.653 347.565 499.944C346.455 505.149 345.303 510.525 344.109 516.072C342.999 521.619 342.061 526.952 341.293 532.072C340.525 537.192 340.141 541.843 340.141 546.024C340.141 549.352 340.439 552.339 341.037 554.984C341.719 557.544 342.743 559.592 344.109 561.128C338.135 565.309 332.845 567.4 328.237 567.4Z" fill="#C2680E"/>
<path d="M380.303 594.28C374.415 594.28 369.465 593 365.455 590.44C361.444 587.88 359.439 584.296 359.439 579.688C359.439 577.811 359.823 575.805 360.591 573.672C361.359 571.539 362.553 569.277 364.175 566.888C366.137 569.704 368.484 571.837 371.215 573.288C373.945 574.824 376.719 575.592 379.535 575.592C382.863 575.592 386.063 574.483 389.135 572.264C392.207 570.045 394.681 566.504 396.559 561.64C394.425 562.408 392.42 562.963 390.543 563.304C388.665 563.645 386.873 563.816 385.167 563.816C380.729 563.816 377.145 562.664 374.415 560.36C371.684 557.971 370.105 554.557 369.679 550.12C369.081 544.488 368.697 538.643 368.527 532.584C368.356 526.525 368.015 521.021 367.503 516.072C366.905 510.269 365.668 505.448 363.791 501.608C361.913 497.768 359.737 494.867 357.263 492.904C359.311 491.027 361.444 489.661 363.663 488.808C365.967 487.869 368.868 487.4 372.367 487.4C376.633 487.4 380.089 488.68 382.735 491.24C385.465 493.8 387.556 497.427 389.007 502.12C390.457 506.728 391.439 512.147 391.951 518.376C392.548 524.52 392.847 531.219 392.847 538.472C392.847 539.496 392.804 541.075 392.719 543.208C392.719 545.341 392.633 547.475 392.463 549.608H399.887C401.252 545.853 402.703 541.843 404.239 537.576C405.775 533.309 407.183 529 408.463 524.648C409.828 520.211 410.937 515.987 411.791 511.976C412.644 507.88 413.071 504.253 413.071 501.096C413.071 499.219 412.857 497.64 412.431 496.36C412.089 495.08 411.663 493.928 411.151 492.904C414.137 491.027 417.081 489.661 419.983 488.808C422.884 487.869 425.487 487.4 427.791 487.4C431.716 487.4 434.575 488.723 436.367 491.368C438.244 494.013 439.183 497.469 439.183 501.736C439.183 504.893 438.713 508.563 437.775 512.744C436.836 516.84 435.641 521.107 434.191 525.544C432.825 529.896 431.417 534.035 429.967 537.96C428.601 541.885 427.449 545.213 426.511 547.944C422.415 559.72 417.807 568.979 412.687 575.72C407.652 582.461 402.361 587.24 396.815 590.056C391.353 592.872 385.849 594.28 380.303 594.28Z" fill="#C2680E"/>
<path d="M465.079 567.4C459.703 567.4 455.863 566.035 453.559 563.304C451.255 560.573 450.103 556.648 450.103 551.528C450.103 549.736 450.359 547.005 450.871 543.336C451.383 539.581 452.023 535.443 452.791 530.92C453.644 526.312 454.54 521.704 455.479 517.096C456.417 512.488 457.313 508.392 458.167 504.808L451.511 494.568C455.009 492.605 458.764 490.941 462.775 489.576C466.871 488.125 471.009 487.4 475.191 487.4C478.775 487.4 481.42 488.296 483.127 490.088C484.833 491.795 485.687 494.141 485.687 497.128C485.687 499.347 485.388 501.651 484.791 504.04C484.193 506.429 483.511 508.477 482.743 510.184L484.023 510.824C489.057 502.205 494.348 496.147 499.895 492.648C505.441 489.149 511.329 487.4 517.559 487.4C522.081 487.4 525.793 488.552 528.695 490.856C531.596 493.075 533.047 496.701 533.047 501.736C533.047 504.296 532.62 507.112 531.767 510.184L533.047 510.824C538.081 502.205 543.372 496.147 548.919 492.648C554.465 489.149 560.353 487.4 566.583 487.4C571.788 487.4 575.671 488.68 578.23 491.24C580.79 493.715 582.071 497.597 582.071 502.888C582.071 507.496 581.431 512.403 580.151 517.608C578.956 522.728 577.719 528.019 576.439 533.48C575.159 538.856 574.519 544.189 574.519 549.48C574.519 554.771 575.415 558.653 577.207 561.128C572.684 565.309 567.991 567.4 563.127 567.4C557.751 567.4 553.911 566.035 551.607 563.304C549.302 560.573 548.151 556.648 548.151 551.528C548.151 548.712 548.535 545.597 549.303 542.184C550.071 538.685 550.967 535.144 551.991 531.56C553.015 527.976 553.911 524.605 554.679 521.448C555.447 518.291 555.831 515.56 555.831 513.256C555.831 511.464 555.489 510.056 554.807 509.032C554.209 508.008 553.1 507.496 551.479 507.496C549.174 507.496 546.529 508.52 543.543 510.568C540.641 512.616 537.783 515.517 534.967 519.272C532.236 522.941 529.975 527.336 528.183 532.456C526.391 537.576 525.495 543.251 525.495 549.48C525.495 554.771 526.391 558.653 528.183 561.128C523.66 565.309 518.967 567.4 514.103 567.4C508.727 567.4 504.887 566.035 502.583 563.304C500.279 560.573 499.127 556.648 499.127 551.528C499.127 548.712 499.51 545.597 500.279 542.184C501.047 538.685 501.943 535.144 502.967 531.56C503.991 527.976 504.887 524.605 505.655 521.448C506.423 518.291 506.807 515.56 506.807 513.256C506.807 511.464 506.465 510.056 505.783 509.032C505.185 508.008 504.076 507.496 502.455 507.496C500.151 507.496 497.505 508.52 494.519 510.568C491.617 512.616 488.759 515.517 485.943 519.272C483.212 522.941 480.951 527.336 479.159 532.456C477.367 537.576 476.471 543.251 476.471 549.48C476.471 554.771 477.367 558.653 479.159 561.128C474.636 565.309 469.943 567.4 465.079 567.4Z" fill="#C2680E"/>
<path d="M608.933 589.672C603.471 589.672 599.759 588.307 597.797 585.576C595.834 582.845 594.853 578.92 594.853 573.8C594.853 571.923 595.066 569.021 595.493 565.096C595.919 561.171 596.431 556.691 597.029 551.656C597.711 546.536 598.479 541.245 599.333 535.784C600.186 530.323 600.997 525.075 601.765 520.04C602.618 515.005 603.386 510.611 604.069 506.856L596.901 496.616C601.423 493.971 605.69 491.752 609.701 489.96C613.797 488.168 617.893 487.272 621.989 487.272C625.573 487.272 628.005 488.509 629.285 490.984C630.565 493.373 631.205 496.189 631.205 499.432C631.205 500.371 631.162 501.437 631.077 502.632C630.991 503.741 630.863 504.936 630.693 506.216L631.973 506.856C634.447 500.712 638.031 495.933 642.725 492.52C647.418 489.021 652.794 487.272 658.853 487.272C663.461 487.272 667.343 488.68 670.501 491.496C673.658 494.227 676.047 497.853 677.669 502.376C679.29 506.899 680.101 511.891 680.101 517.352C680.101 522.643 679.077 528.061 677.029 533.608C675.066 539.069 672.037 544.104 667.941 548.712C663.845 553.32 658.682 557.032 652.453 559.848C646.223 562.664 638.842 564.072 630.309 564.072C628.687 564.072 627.109 564.029 625.573 563.944C624.036 563.773 622.372 563.603 620.581 563.432C620.324 566.333 620.197 569.107 620.197 571.752C620.197 574.312 620.495 576.573 621.093 578.536C621.775 580.584 622.799 582.205 624.165 583.4C619.386 587.581 614.309 589.672 608.933 589.672ZM622.885 551.528C628.431 551.357 633.295 550.333 637.477 548.456C641.743 546.493 645.327 543.976 648.229 540.904C651.13 537.747 653.306 534.333 654.757 530.664C656.207 526.995 656.933 523.411 656.933 519.912C656.933 515.987 656.165 512.787 654.629 510.312C653.092 507.837 650.789 506.6 647.717 506.6C644.559 506.6 641.573 507.581 638.757 509.544C636.026 511.421 633.551 514.536 631.333 518.888C629.199 523.24 627.365 529.171 625.829 536.68L622.885 551.528Z" fill="#C2680E"/>
<path d="M709.237 567.4C703.775 567.4 699.892 566.035 697.589 563.304C695.285 560.573 694.133 556.648 694.133 551.528C694.133 549.651 694.389 547.048 694.901 543.72C695.413 540.307 696.095 536.552 696.949 532.456C697.802 528.275 698.698 524.051 699.637 519.784C700.575 515.517 701.471 511.507 702.325 507.752L695.157 497C699.679 494.269 703.988 492.008 708.085 490.216C712.181 488.339 716.277 487.4 720.373 487.4C723.957 487.4 726.431 488.168 727.797 489.704C729.247 491.24 729.973 493.629 729.973 496.872C729.973 498.152 729.631 500.243 728.948 503.144C728.351 506.045 727.583 509.459 726.645 513.384C725.706 517.309 724.767 521.448 723.828 525.8C722.89 530.067 722.079 534.291 721.397 538.472C720.799 542.568 720.501 546.237 720.501 549.48C720.501 552.04 720.799 554.344 721.397 556.392C722.079 558.355 723.103 559.933 724.469 561.128C719.69 565.309 714.613 567.4 709.237 567.4Z" fill="#C2680E"/>
<path d="M777.422 567.4C769.997 567.4 763.555 565.992 758.094 563.176C752.718 560.275 748.536 556.307 745.549 551.272C742.648 546.237 741.198 540.392 741.198 533.736C741.198 526.824 742.435 520.552 744.909 514.92C747.384 509.203 750.883 504.296 755.406 500.2C759.928 496.104 765.176 492.947 771.15 490.728C777.208 488.509 783.736 487.4 790.734 487.4C798.328 487.4 804.174 488.851 808.27 491.752C812.451 494.568 814.542 498.109 814.542 502.376C814.542 506.472 813.048 509.587 810.062 511.72C807.16 513.853 803.832 514.92 800.078 514.92C797.518 514.92 794.829 514.067 792.013 512.36C789.198 510.653 786.936 508.008 785.229 504.424C781.475 505.96 778.275 508.349 775.63 511.592C773.07 514.749 771.107 518.291 769.742 522.216C768.461 526.056 767.822 529.853 767.822 533.608C767.822 538.643 768.888 542.995 771.022 546.664C773.155 550.248 776.312 552.04 780.494 552.04C783.395 552.04 786.04 550.931 788.43 548.712C790.819 546.408 792.013 542.781 792.013 537.832C797.816 537.832 802.382 538.472 805.71 539.752C809.038 541.032 810.702 543.336 810.702 546.664C810.702 549.736 809.336 552.893 806.606 556.136C803.875 559.293 800.035 561.981 795.086 564.2C790.136 566.333 784.248 567.4 777.422 567.4Z" fill="#C2680E"/>
<path d="M854.567 567.4C846.545 567.4 840.145 566.76 835.367 565.48C830.673 564.285 827.302 562.621 825.255 560.488C823.207 558.355 822.182 556.008 822.182 553.448C822.182 551.485 822.695 549.224 823.719 546.664C824.828 544.104 826.407 541.672 828.455 539.368C829.905 541.331 831.825 543.165 834.215 544.872C836.689 546.493 839.377 547.816 842.279 548.84C845.18 549.779 847.996 550.248 850.727 550.248C853.713 550.248 856.401 549.565 858.791 548.2C861.18 546.749 862.758 544.317 863.526 540.904C850.385 539.368 840.956 536.467 835.239 532.2C829.521 527.848 826.663 521.832 826.663 514.152C826.663 509.288 827.815 505.149 830.119 501.736C832.423 498.323 835.495 495.592 839.335 493.544C843.26 491.411 847.697 489.875 852.647 488.936C857.681 487.912 862.887 487.4 868.263 487.4C873.297 487.4 877.777 488.083 881.703 489.448C885.628 490.728 888.7 492.477 890.919 494.696C893.137 496.915 894.247 499.475 894.247 502.376C894.247 506.472 892.753 509.587 889.767 511.72C886.865 513.853 883.537 514.92 879.783 514.92C877.223 514.92 874.534 514.067 871.719 512.36C868.903 510.653 866.641 508.008 864.935 504.424C861.777 505.363 859.26 506.728 857.383 508.52C855.505 510.227 853.841 512.701 852.391 515.944C862.119 517.395 869.841 519.229 875.559 521.448C881.276 523.667 885.372 526.483 887.846 529.896C890.406 533.224 891.687 537.363 891.687 542.312C891.687 546.237 890.791 549.651 888.999 552.552C887.292 555.453 885.031 557.843 882.215 559.72C879.399 561.597 876.327 563.091 872.999 564.2C869.671 565.395 866.385 566.205 863.143 566.632C859.9 567.144 857.041 567.4 854.567 567.4Z" fill="#C2680E"/>
<path d="M799.042 395.927C798.206 395.991 792.93 396.886 789.472 397.861C787.096 398.531 785.869 400.928 784.186 402.822C782.016 405.266 779.227 410.528 775.959 417.644C774.885 419.982 775.581 421.684 775.684 422.038C775.914 422.829 775.194 418.154 773.038 412.241C769.767 403.267 764.384 398.546 762.618 397.096C759.464 394.508 756.56 393.316 756.073 393.312C755.509 393.306 758.335 393.791 760.585 393.662C763.248 393.51 764.472 391.15 773.647 381.09C778.309 375.98 778.524 372.146 778.883 371.028C779.387 369.459 783.139 380.902 788.047 389.685C789.621 392.501 793.958 394.228 797.063 395.473C797.791 395.653 798.71 395.81 799.585 395.891C800.461 395.972 801.264 395.972 802.092 395.972" stroke="#E1994D" stroke-width="9" stroke-linecap="round"/>
<path d="M783.767 329.724C784.526 329.786 789.312 330.67 792.449 331.633C794.605 332.294 795.718 334.66 797.244 336.53C799.213 338.942 801.743 344.137 804.708 351.161C805.682 353.47 805.051 355.149 804.957 355.499C804.749 356.28 805.401 351.665 807.357 345.828C810.325 336.969 815.208 332.309 816.81 330.878C819.671 328.322 822.306 327.146 822.748 327.141C823.26 327.136 820.695 327.614 818.654 327.487C816.239 327.337 815.128 325.007 806.805 315.077C802.576 310.032 802.381 306.248 802.055 305.144C801.597 303.595 798.194 314.891 793.741 323.562C792.314 326.341 788.38 328.045 785.563 329.275C784.902 329.453 784.069 329.608 783.274 329.687C782.48 329.767 781.751 329.767 781 329.767" stroke="#E1994D" stroke-width="9" stroke-linecap="round"/>
<path d="M901.738 390.068C901.669 390.068 900.086 390.087 895.917 391.155C889.045 392.914 884.105 397.99 879.86 402.526C873.552 409.265 870.645 415.228 869.578 417.862C866.726 424.907 865.056 431.282 864.195 435.818C863.86 437.584 864.049 439.298 863.804 440.104C863.638 440.647 863.086 438.481 860.908 433.135C858.969 428.378 854.694 419.702 851.855 414.209C849.015 408.716 847.577 406.729 845.366 404.048C840.348 397.96 836.256 394 834.19 392.746C831.888 391.349 827.413 389.962 823.477 388.343C822.569 387.97 827.614 386.113 832.695 383.424C838.169 380.527 842.005 375.852 844.98 372.547C846.757 370.574 849.618 364.539 853.844 354.986C859.145 343.004 858.451 339.13 858.738 338.616C860.4 335.635 859.642 347.833 863.446 354.032C865.232 356.942 868.595 360.933 872.111 364.99C879.156 373.12 884.035 377.39 887.216 380.098C893.857 386.34 900.831 389.03 903 390.068" stroke="#E1994D" stroke-width="9" stroke-linecap="round"/>
<path d="M305.588 351.424C307.446 351.369 313.34 350.589 319.52 345.33C325.195 340.499 328.764 333.188 330.795 327.994C332.319 324.095 334.84 336.093 337.393 340.018C340.114 344.201 345.853 348.687 351.047 350.933C352.081 351.38 353.06 351.597 353.093 352.193C353.127 352.79 352.228 353.646 351.27 354.156C347.703 356.054 343.595 355.924 337.504 360.752C330.732 366.122 329.601 370.748 327.561 373.347C326.667 374.486 324.919 370.368 322.879 366.677C320.693 362.722 315.636 360.861 311.192 358.312C308.932 357.339 306.841 356.721 304.844 356.415C303.769 356.283 302.569 356.198 301.131 355.921" stroke="#E1994D" stroke-width="8" stroke-linecap="round"/>
<path d="M268.737 312.426C269.173 310.972 270.897 305.819 271.904 299.684C272.18 297.999 272.021 296.216 272.526 295.527C273.031 294.838 274.04 295.278 274.8 295.968C277.975 298.85 280.467 305.583 283.891 309.907C286.863 313.659 290.622 315.836 293.49 317.725C293.973 318.043 292.92 319.052 292.092 319.5C288.582 321.401 283.419 322.114 280.319 325.215C277.098 328.438 274.44 333.131 272.937 335.066C270.956 337.616 271.925 328.622 270.01 327.056C264.927 322.899 255.455 321 255.5 319.5C255.545 318 265.056 316.599 268.097 312.675C268.795 311.748 269.314 310.904 270.315 307.882" stroke="#E1994D" stroke-width="8" stroke-linecap="round"/>
<path d="M243.824 413.203C246.926 413.203 254.946 412.988 266.83 408.838C276.038 405.623 279.066 400.069 282.332 394.686C285.643 389.228 284.065 381.046 284.643 377.671C285.61 372.02 293.337 393.009 299.178 400.388C302.705 404.842 308.17 406.52 313.801 408.497C320.375 410.805 326.035 410.839 326.682 411.297C331.26 414.531 317.813 415.377 311.591 419.456C304.046 424.403 300.277 432.136 296.007 438.508C293.589 442.116 292.343 445.097 291.23 445.955C288.415 448.127 287.503 439.152 284.832 435.75C281.364 431.332 273.03 426.66 264.431 422.153C261.278 420.818 256.801 419.161 254.035 418.205C251.269 417.249 250.351 417.044 247.013 416.576" stroke="#E1994D" stroke-width="8" stroke-linecap="round"/>
<path d="M944.453 248.663C944.932 248.772 947.913 249.772 949.832 250.67C951.151 251.287 951.648 252.89 952.454 254.216C953.494 255.927 954.641 259.455 955.899 264.183C956.313 265.737 955.756 266.745 955.665 266.958C955.46 267.434 956.297 264.566 958.078 261.042C960.782 255.693 964.329 253.183 965.483 252.422C967.546 251.063 969.338 250.558 969.621 250.596C969.949 250.639 968.265 250.708 966.971 250.44C965.44 250.124 964.941 248.544 960.519 241.481C958.273 237.892 958.492 235.474 958.384 234.743C958.232 233.719 955.028 240.574 951.392 245.667C950.227 247.3 947.555 248.021 945.642 248.543C945.203 248.595 944.656 248.617 944.141 248.595C943.626 248.573 943.159 248.506 942.679 248.437" stroke="#E1994D" stroke-width="4" stroke-linecap="round"/>
<path d="M949.959 376.365C949.996 376.37 951.046 376.487 957.167 376.308C962.263 376.16 971.374 375.313 983.382 375.956C995.39 376.6 1010.01 378.612 1019.25 380.123C1031.95 382.202 1036.1 383.875 1037.39 384.529C1037.98 384.831 1038.36 385.238 1038.52 385.735C1039.34 388.202 1036.83 397.874 1034.49 406.052C1033.73 408.733 1030.99 412.664 1023.06 430.716C1015.13 448.768 1001.58 480.623 993.88 499.143C986.182 517.664 984.753 521.885 983.829 524.396C980.903 532.352 977.707 541.206 976.975 542.412C976.641 542.962 976.123 543.21 975.833 543.011C973.958 541.724 975.451 538.259 975.446 531.629C975.442 526.954 974.778 522.02 974.785 517.657C974.79 514.306 974.488 509.767 973.782 499.171C973.282 491.658 971.694 479.871 969.599 467.317C967.505 454.762 964.748 441.812 961.796 431.151C958.844 420.491 955.782 412.512 953.886 407.882C950.766 400.263 949.87 397.24 948.534 394.081C947.907 392.574 947.328 391.398 946.625 390.621C946.221 390.264 945.718 389.981 944.401 388.877" stroke="#E1994D" stroke-width="8" stroke-linecap="round"/>
<path d="M957.844 366.63C957.632 365.356 956.291 361.005 952.637 353.137C947.814 342.752 945.664 329.235 945.266 317.458C944.933 307.614 946.866 302.445 947.981 301.426C950.555 299.073 955.731 303.49 961.978 307.332C963.952 308.547 966.087 310.213 967.906 309.293C969.726 308.372 971.113 304.896 974.55 297.795C977.987 290.695 983.432 280.075 986.721 271.757C990.009 263.44 990.975 257.747 991.896 254.875C992.817 252.004 993.663 252.128 995.285 252.919C1004.29 257.312 1010.84 269.824 1016.23 281.319C1019.54 288.395 1019.77 291.713 1021.55 296.182C1022.29 298.029 1022.39 299.806 1024.26 301.376C1034.07 309.571 1046.59 303.778 1049.85 304.847C1050.67 305.116 1050.07 307.076 1047.15 314.467C1044.23 321.858 1038.55 335.142 1035.07 342.954C1030.45 352.706 1027 357.211 1023.17 361.355C1021.6 362.992 1020.82 363.681 1018.4 365.122" stroke="#E1994D" stroke-width="8" stroke-linecap="round"/>
<path d="M1045.78 236.466C1045.19 240.273 1042.09 252.584 1038.61 258.426C1034.42 265.443 1030.13 265.663 1029.15 266.22C1027.09 267.389 1034.31 267.631 1035.96 269.162C1041.06 273.89 1043.97 282.142 1045.45 289.267C1045.79 290.911 1045.94 292.045 1046.36 292.382C1046.78 292.718 1047.4 292.234 1047.84 291.499C1050.08 287.789 1055.39 279.281 1060.71 274.547C1064.1 271.524 1068.04 272.548 1068.92 271.997C1071.58 270.333 1061.79 264.614 1056.15 256.998C1051.48 246.88 1048.88 239.09 1048.56 237.352C1048.45 236.485 1048.43 235.648 1048.44 234.564" stroke="#E1994D" stroke-width="4" stroke-linecap="round"/>
<path d="M1051.63 360.084C1052.54 359.501 1056.18 355.612 1060.57 348.683C1061.45 347.295 1061.67 346.512 1062.14 346.464C1065.87 346.084 1065.72 356 1067.79 359.815C1069.84 363.602 1074.3 365.133 1078.73 366.873C1079.72 367.264 1080.51 367.541 1080.49 367.898C1080.35 370.695 1073.73 370.895 1066.84 375.968C1061.76 379.708 1060.65 384.736 1060.18 385.443C1058.66 387.718 1058.74 376.508 1056.69 372.38C1055.09 369.144 1049.93 368.623 1046.56 367.467C1043.17 366.303 1052.49 363.125 1054.53 359.972C1054.95 359.091 1055.33 358.084 1055.67 356.863C1056 355.641 1056.27 354.236 1056.55 352.789" stroke="#E1994D" stroke-width="4" stroke-linecap="round"/>
<path d="M161.548 384.146C161.508 384.154 160.379 384.351 153.736 384.571C148.206 384.754 138.28 384.454 125.313 385.957C112.347 387.46 96.6362 390.613 86.7327 392.864C73.1092 395.96 68.7221 398.041 67.3704 398.833C66.7469 399.199 66.3619 399.663 66.2171 400.209C65.4973 402.923 68.8399 413.178 71.9094 421.833C72.9157 424.67 76.132 428.722 85.902 447.642C95.6721 466.562 112.438 499.977 121.987 519.417C131.537 538.858 133.361 543.31 134.526 545.954C138.216 554.331 142.256 563.657 143.128 564.907C143.526 565.478 144.103 565.71 144.404 565.476C146.351 563.963 144.507 560.329 144.08 553.184C143.778 548.146 144.175 542.784 143.883 538.082C143.659 534.472 143.689 529.56 143.761 518.093C143.813 509.963 144.763 497.155 146.212 483.484C147.661 469.813 149.802 455.672 152.303 443.984C154.805 432.297 157.601 423.493 159.353 418.375C162.235 409.954 163.007 406.636 164.249 403.142C164.829 401.475 165.38 400.169 166.091 399.285C166.506 398.872 167.032 398.534 168.386 397.256" stroke="#E1994D" stroke-width="8" stroke-linecap="round"/>
<path d="M192.643 317.033C191.687 317.129 188.195 316.514 184.051 314.091C180.925 312.264 180.239 309.306 179.459 308.71C176.097 306.144 177.02 317.165 175.661 318.685C173.72 320.854 170.44 320.662 170.355 321.66C170.116 324.488 176.201 323.553 178.019 325.099C179.787 326.602 180.623 329.487 181.307 331.617C181.501 332.221 182.021 329.455 182.316 327.785C183.11 326.322 182.535 328.848 184.611 323.207C185.449 320.932 189.184 318.576 193.209 317.71" stroke="#E1994D" stroke-width="4" stroke-linecap="round"/>
<path d="M150.177 372.755C151.443 372.484 161.042 372.393 162.377 360.557C162.702 357.683 160.697 351.528 161.485 349.796C162.273 348.064 162.698 311.351 162.698 311.351C164.57 310.964 145.528 335.232 143.101 338.477C135.856 348.163 129.875 317.316 129.226 316.027C123.224 304.109 126.9 280.947 124.301 281.305C113.361 282.814 114.63 326.056 107.594 335.249C106.095 337.208 105.267 337.605 102.017 334.74C82.579 317.61 78.4181 307.803 77.4662 307.038C76.5605 306.31 74.6055 316.808 72.6246 332.6C73.5516 356.617 76.7031 368.377 79.1405 373.846C80.1573 375.94 80.7269 376.649 82.9245 377.622" stroke="#E1994D" stroke-width="8" stroke-linecap="round"/>
<path d="M104.874 228.221C105.763 232.284 109.928 245.343 114.083 251.403C119.074 258.684 123.733 258.632 124.833 259.166C127.145 260.288 119.338 261.035 117.649 262.796C112.434 268.235 109.82 277.322 108.681 285.101C108.418 286.896 108.328 288.128 107.9 288.519C107.472 288.91 106.769 288.429 106.24 287.668C103.572 283.82 97.2619 275.009 91.1934 270.266C87.3182 267.237 83.1146 268.605 82.1264 268.071C79.1394 266.456 89.3664 259.634 94.9797 251.047C99.3827 239.828 101.691 231.259 101.919 229.364C101.985 228.422 101.948 227.519 101.865 226.352" stroke="#E1994D" stroke-width="4" stroke-linecap="round"/>
<path d="M48.2753 321.854C47.258 321.287 43.0524 317.342 37.8512 310.17C36.809 308.733 36.5111 307.905 35.9972 307.885C31.9379 307.725 32.7477 318.402 30.7547 322.652C28.7754 326.872 24.0471 328.823 19.365 330.996C18.3139 331.484 17.4782 331.835 17.5213 332.218C17.8595 335.224 25.0439 334.993 32.8393 339.996C38.5866 343.684 40.1184 349.028 40.6755 349.758C42.4691 352.108 41.6525 340.032 43.5946 335.446C45.1168 331.851 50.6727 330.941 54.2473 329.469C57.8523 327.985 47.5484 325.188 45.1285 321.928C44.6154 321.007 44.1343 319.948 43.6946 318.654C43.2549 317.36 42.8712 315.864 42.4759 314.323" stroke="#E1994D" stroke-width="4" stroke-linecap="round"/>
<g filter="url(#filter0_d_10_85)">
<circle cx="751" cy="95" r="95" fill="#965926"/>
<circle cx="751" cy="95" r="89.5" stroke="#E5BB96" stroke-opacity="0.2" stroke-width="11"/>
</g>
<circle cx="766" cy="38" r="15" fill="#C9965C"/>
<circle cx="792.5" cy="66.5" r="9.5" fill="#C9965C"/>
<path d="M678.9 92.4344C683.687 131.969 715.982 191.268 811.32 151.509C710.615 230.246 667.972 125.643 678.9 92.4344Z" fill="#683F18" stroke="#683F18"/>
<g filter="url(#filter1_d_10_85)">
<circle cx="644" cy="218" r="95" fill="#965926"/>
<circle cx="644" cy="218" r="89.5" stroke="#E5BB96" stroke-opacity="0.2" stroke-width="11"/>
</g>
<circle cx="659" cy="161" r="15" fill="#C9965C"/>
<circle cx="685.5" cy="189.5" r="9.5" fill="#C9965C"/>
<path d="M574.565 212.434C607.665 271.509 614.165 290.5 706.985 271.509C613.165 338.5 550.165 238.5 574.565 212.434Z" fill="#683F18" stroke="#683F18"/>
<g filter="url(#filter2_d_10_85)">
<circle cx="549" cy="102" r="95" fill="#6F4825"/>
<circle cx="549" cy="102" r="89.5" stroke="#E5BB96" stroke-opacity="0.2" stroke-width="11"/>
</g>
<circle cx="564" cy="45" r="15" fill="#A47E55"/>
<circle cx="590.5" cy="73.5" r="9.5" fill="#A47E55"/>
<path d="M482.5 90.5C488 119.5 524.5 192 614.92 149.575C514.215 228.312 471.572 123.709 482.5 90.5Z" fill="#533116" stroke="#533116"/>
<g filter="url(#filter3_d_10_85)">
<circle cx="347" cy="107" r="95" fill="#965C27"/>
<circle cx="347" cy="107" r="89.5" stroke="#E5BB96" stroke-opacity="0.2" stroke-width="11"/>
</g>
<circle cx="362" cy="50" r="15" fill="#C8965B"/>
<path d="M271.065 91.2169C271.063 89.8294 271.299 88.7894 271.782 88.1684C271.505 89.1648 271.267 90.1816 271.065 91.2169C271.1 110.586 317.684 197.69 390.058 158.459C328.428 221.556 262.015 137.76 271.065 91.2169Z" fill="#683F18"/>
<path d="M271.782 88.1684C264.558 97.4591 312.5 200.5 390.058 158.459C327.057 222.959 259.058 133.959 271.782 88.1684Z" stroke="#683F18"/>
<g filter="url(#filter4_d_10_85)">
<circle cx="444" cy="218" r="95" fill="#965926"/>
<circle cx="444" cy="218" r="89.5" stroke="#E5BB96" stroke-opacity="0.2" stroke-width="11"/>
</g>
<circle cx="459" cy="161" r="15" fill="#C9965C"/>
<circle cx="485.5" cy="189.5" r="9.5" fill="#C9965C"/>
<path d="M371.9 215.434C376.687 254.969 411.5 302 504.32 274.509C396 328.5 360.972 248.643 371.9 215.434Z" fill="#683F18" stroke="#683F18"/>
<defs>
<filter id="filter0_d_10_85" x="656" y="0" width="190" height="201" filterUnits="userSpaceOnUse" color-interpolation-filters="sRGB">
<feFlood flood-opacity="0" result="BackgroundImageFix"/>
<feColorMatrix in="SourceAlpha" type="matrix" values="0 0 0 0 0 0 0 0 0 0 0 0 0 0 0 0 0 0 127 0" result="hardAlpha"/>
<feOffset dy="11"/>
<feComposite in2="hardAlpha" operator="out"/>
<feColorMatrix type="matrix" values="0 0 0 0 0.846154 0 0 0 0 0.620513 0 0 0 0 0.423077 0 0 0 1 0"/>
<feBlend mode="normal" in2="BackgroundImageFix" result="effect1_dropShadow_10_85"/>
<feBlend mode="normal" in="SourceGraphic" in2="effect1_dropShadow_10_85" result="shape"/>
</filter>
<filter id="filter1_d_10_85" x="549" y="123" width="190" height="201" filterUnits="userSpaceOnUse" color-interpolation-filters="sRGB">
<feFlood flood-opacity="0" result="BackgroundImageFix"/>
<feColorMatrix in="SourceAlpha" type="matrix" values="0 0 0 0 0 0 0 0 0 0 0 0 0 0 0 0 0 0 127 0" result="hardAlpha"/>
<feOffset dy="11"/>
<feComposite in2="hardAlpha" operator="out"/>
<feColorMatrix type="matrix" values="0 0 0 0 0.846154 0 0 0 0 0.620513 0 0 0 0 0.423077 0 0 0 1 0"/>
<feBlend mode="normal" in2="BackgroundImageFix" result="effect1_dropShadow_10_85"/>
<feBlend mode="normal" in="SourceGraphic" in2="effect1_dropShadow_10_85" result="shape"/>
</filter>
<filter id="filter2_d_10_85" x="454" y="7" width="190" height="201" filterUnits="userSpaceOnUse" color-interpolation-filters="sRGB">
<feFlood flood-opacity="0" result="BackgroundImageFix"/>
<feColorMatrix in="SourceAlpha" type="matrix" values="0 0 0 0 0 0 0 0 0 0 0 0 0 0 0 0 0 0 127 0" result="hardAlpha"/>
<feOffset dy="11"/>
<feComposite in2="hardAlpha" operator="out"/>
<feColorMatrix type="matrix" values="0 0 0 0 0.846154 0 0 0 0 0.620513 0 0 0 0 0.423077 0 0 0 1 0"/>
<feBlend mode="normal" in2="BackgroundImageFix" result="effect1_dropShadow_10_85"/>
<feBlend mode="normal" in="SourceGraphic" in2="effect1_dropShadow_10_85" result="shape"/>
</filter>
<filter id="filter3_d_10_85" x="252" y="12" width="190" height="201" filterUnits="userSpaceOnUse" color-interpolation-filters="sRGB">
<feFlood flood-opacity="0" result="BackgroundImageFix"/>
<feColorMatrix in="SourceAlpha" type="matrix" values="0 0 0 0 0 0 0 0 0 0 0 0 0 0 0 0 0 0 127 0" result="hardAlpha"/>
<feOffset dy="11"/>
<feComposite in2="hardAlpha" operator="out"/>
<feColorMatrix type="matrix" values="0 0 0 0 0.846154 0 0 0 0 0.620513 0 0 0 0 0.423077 0 0 0 1 0"/>
<feBlend mode="normal" in2="BackgroundImageFix" result="effect1_dropShadow_10_85"/>
<feBlend mode="normal" in="SourceGraphic" in2="effect1_dropShadow_10_85" result="shape"/>
</filter>
<filter id="filter4_d_10_85" x="349" y="123" width="190" height="201" filterUnits="userSpaceOnUse" color-interpolation-filters="sRGB">
<feFlood flood-opacity="0" result="BackgroundImageFix"/>
<feColorMatrix in="SourceAlpha" type="matrix" values="0 0 0 0 0 0 0 0 0 0 0 0 0 0 0 0 0 0 127 0" result="hardAlpha"/>
<feOffset dy="11"/>
<feComposite in2="hardAlpha" operator="out"/>
<feColorMatrix type="matrix" values="0 0 0 0 0.846154 0 0 0 0 0.620513 0 0 0 0 0.423077 0 0 0 1 0"/>
<feBlend mode="normal" in2="BackgroundImageFix" result="effect1_dropShadow_10_85"/>
<feBlend mode="normal" in="SourceGraphic" in2="effect1_dropShadow_10_85" result="shape"/>
</filter>
</defs>
</svg>